<svg xmlns="http://www.w3.org/2000/svg" viewBox="0 0 612 612" class="logo-svg">
  <path fill="#E6E6FA" fill-rule="evenodd" d="M308.029 444.977c-.841-.012-4.288-1.51-7.66-3.328-3.373-1.818-8.548-5.053-11.5-7.19-2.953-2.136-7.844-6.016-10.869-8.621-3.025-2.606-7.27-6.984-9.434-9.73l-3.934-4.99-11.566.574c-6.743.336-15.319.084-20.566-.603-4.95-.649-12.395-2.083-16.544-3.188l-7.545-2.01-1.733-5.838c-.953-3.21-2.356-9.149-3.118-13.195-.761-4.047-1.675-11.183-2.031-15.858-.356-4.675-.243-11.327.25-14.783l.899-6.283-4.602-3.378c-2.531-1.858-7.105-6.006-10.164-9.217-3.058-3.212-7.644-8.672-10.19-12.135-2.545-3.463-6.03-8.748-7.745-11.744-2.166-3.786-2.907-6.106-2.429-7.612.378-1.19 2.744-5.58 5.257-9.756 2.514-4.176 7.239-10.884 10.5-14.907s8.522-9.423 11.691-12l5.761-4.685-.521-12.06c-.305-7.05-.024-15.564.677-20.5.659-4.642 2.106-11.866 3.215-16.053l2.017-7.613 7.678-2.075c4.222-1.142 10.602-2.634 14.177-3.317 3.575-.683 12.666-1.274 20.203-1.312l13.704-.07 5.387-6.53c2.964-3.592 8.272-8.953 11.797-11.912 3.525-2.96 9.744-7.568 13.82-10.241 4.076-2.673 8.442-5.119 9.702-5.435 1.579-.396 4.65.727 9.87 3.609 4.168 2.3 11.052 6.772 15.298 9.935 4.245 3.164 9.76 7.962 12.254 10.663 2.494 2.701 5.194 5.822 6 6.936 1.37 1.894 2.536 2.024 17.965 2.01 9.958-.01 18.879.504 22.5 1.296 3.3.722 8.529 1.998 11.62 2.836l5.618 1.523 2.07 7.655c1.137 4.21 2.63 10.58 3.316 14.155.686 3.575 1.276 12.855 1.312 20.623l.064 14.122 5 3.962c2.75 2.18 7.669 6.849 10.93 10.377 3.263 3.529 8.522 10.36 11.688 15.18 3.165 4.819 6.042 9.666 6.393 10.77.42 1.326-.55 4.125-2.858 8.237-1.922 3.426-5.726 9.379-8.453 13.229-2.727 3.85-7.825 9.807-11.33 13.239-3.503 3.431-7.355 6.924-8.558 7.763-2.108 1.469-2.167 1.977-1.607 13.82.353 7.483.112 15.6-.618 20.737-.659 4.643-2.112 11.89-3.229 16.105l-2.03 7.663-7.664 2.032c-4.215 1.118-10.589 2.579-14.164 3.247-3.575.668-12.718 1.255-20.318 1.304l-13.817.09-4.702 5.702c-2.586 3.137-7.618 8.262-11.183 11.389-3.564 3.127-10.517 8.324-15.451 11.547-4.934 3.224-9.66 5.852-10.5 5.84zM307.45 433c.657 0 4.537-2.284 8.622-5.077 4.085-2.792 10.916-8.519 15.178-12.726 4.262-4.208 7.742-7.886 7.733-8.174-.01-.287-2.597-1.62-5.75-2.959-4.455-1.893-8.074-4.794-16.233-13.01l-10.5-10.576-5.706 7.196c-3.139 3.957-8.089 8.982-11 11.167-2.912 2.184-7.207 4.959-9.544 6.166-2.337 1.207-4.25 2.542-4.25 2.967 0 .424 3.41 4.01 7.578 7.97 4.167 3.959 10.975 9.416 15.128 12.127 4.153 2.71 8.088 4.929 8.744 4.929zm-61.2-32.09c6.463.05 11.75-.248 11.75-.66 0-.413-1.003-3.225-2.227-6.25-1.965-4.854-2.22-7.228-2.165-20.22l.061-14.722-12.084.582c-9.488.456-13.482.223-18.585-1.086-3.575-.916-7.512-1.919-8.75-2.227-2.191-.546-2.25-.355-2.23 7.306.011 4.327.422 10.645.913 14.04.492 3.396 1.402 8.625 2.024 11.62.622 2.994 1.673 6.17 2.337 7.056.726.97 4.388 2.18 9.206 3.042 4.4.786 13.287 1.47 19.75 1.52zm122.25-1.224c6.05-.303 14.292-1.257 18.316-2.119 4.024-.862 8.136-2.006 9.139-2.543 1.208-.646 2.237-3.092 3.05-7.25.676-3.45 1.452-12.462 1.725-20.024.273-7.563.207-13.75-.148-13.75s-3.218.854-6.364 1.899c-3.145 1.044-8.868 2.173-12.718 2.51-3.85.335-10.514.245-14.808-.202l-7.809-.813.785 6.553c.432 3.604.714 10.153.627 14.553-.093 4.71-.96 10.55-2.107 14.203-1.072 3.411-1.665 6.502-1.318 6.868.346.367 5.58.418 11.63.115zM269.568 398c.274 0 2.833-1.183 5.686-2.629 2.853-1.445 8.056-5.383 11.563-8.75 3.508-3.366 7.975-8.297 9.928-10.956l3.55-4.836-2.18-3.664c-1.199-2.016-3.793-6.815-5.765-10.665-1.971-3.85-3.644-7.058-3.717-7.129-.073-.07-5.308 1.551-11.633 3.604l-11.5 3.733-.662 4.896c-.365 2.693-.702 8.514-.75 12.936-.049 4.422.59 10.646 1.42 13.832.83 3.185 1.971 6.655 2.536 7.71.564 1.055 1.25 1.918 1.524 1.918zm74.566-1c.448 0 1.45-1.238 2.226-2.75.777-1.512 1.969-5.45 2.65-8.75.795-3.854.998-9.04.568-14.5-.368-4.675-1-10.05-1.403-11.946-.716-3.36-.97-3.515-10.205-6.23-5.208-1.532-10.37-3.03-11.47-3.329-1.7-.462-2.808 1.033-7.403 9.997-4.524 8.826-5.234 10.905-4.363 12.775.573 1.228 4.478 5.916 8.68 10.418 5.428 5.817 9.414 9.072 13.772 11.25 3.373 1.686 6.5 3.065 6.948 3.065zM306.5 360c.256 0 1.606-2.25 3-5l2.534-5h-11.068l2.534 5c1.394 2.75 2.744 5 3 5zM240 348.662c7.425-.22 14.221-.706 15.102-1.081.934-.397 2.125-3.016 2.855-6.28.69-3.079 2.107-8.08 3.15-11.114 1.044-3.033 1.785-5.592 1.646-5.685-.14-.094-5.003-2.66-10.808-5.704l-10.555-5.533-5.953 4.701c-3.274 2.586-8.066 7.052-10.65 9.925-2.583 2.874-5.875 7.716-7.315 10.76-1.44 3.045-2.37 5.785-2.065 6.09.305.304 2.925 1.4 5.823 2.437 4.442 1.587 7.39 1.82 18.77 1.484zm133.7-.812c3.961.083 9.586-.355 12.5-.972 2.915-.617 6.65-1.799 8.3-2.627 1.65-.828 3.156-1.641 3.346-1.808.19-.166-1.066-2.952-2.793-6.192-1.726-3.239-5.423-8.246-8.214-11.127-2.792-2.88-7.523-7.086-10.515-9.344l-5.44-4.107-3.692 2.196c-2.03 1.207-6.73 3.762-10.442 5.676-3.712 1.914-6.745 4.037-6.738 4.718.007.68 1.357 5.246 3 10.147 1.643 4.9 2.988 9.504 2.988 10.23 0 .727 1.012 1.545 2.25 1.817s3.6.663 5.25.869c1.65.206 6.24.442 10.2.524zm-102.94-4.154c1.507-.303 3.981-1.024 5.499-1.602l2.758-1.051-3.755-3.442c-2.065-1.892-3.9-3.296-4.077-3.12-.177.177-.96 2.447-1.742 5.043l-1.421 4.722 2.739-.55zm73.046-1.788c.169-.937-.365-3.309-1.184-5.271l-1.491-3.568-3.599 3.599c-1.98 1.98-3.424 3.773-3.21 3.987.213.213 2.365.966 4.783 1.672 3.956 1.156 4.426 1.114 4.701-.42zm-36.306-3.206c5.995-.167 9.176-.8 12.693-2.524 2.58-1.265 6.503-4.058 8.716-6.205 2.212-2.147 5.273-6.282 6.802-9.189 2.473-4.702 2.78-6.33 2.78-14.784 0-8.426-.311-10.09-2.746-14.717-1.51-2.869-4.335-6.806-6.278-8.75-1.944-1.943-5.881-4.768-8.75-6.278-4.627-2.435-6.291-2.745-14.717-2.745s-10.09.31-14.717 2.745c-2.869 1.51-6.806 4.335-8.75 6.278-1.943 1.944-4.768 5.881-6.278 8.75-2.435 4.627-2.745 6.291-2.745 14.717s.31 10.09 2.745 14.717c1.51 2.869 4.332 6.803 6.271 8.743 1.94 1.94 5.428 4.497 7.75 5.684 2.323 1.187 5.349 2.523 6.724 2.969 1.375.446 6.1.71 10.5.589zM204.717 338c.576 0 2.288-2.587 3.802-5.75 1.977-4.127 5.672-8.621 13.093-15.925 5.687-5.596 9.927-10.32 9.423-10.5-.503-.179-3.897-2.797-7.541-5.818-3.644-3.021-8.359-7.746-10.477-10.5-2.118-2.754-4.931-7.147-6.252-9.762l-2.4-4.756-5.677 5.543c-3.122 3.048-7.84 8.398-10.482 11.89-2.643 3.491-5.873 8.36-7.178 10.82l-2.372 4.471 4.814 7.242c2.648 3.984 8.276 10.798 12.507 15.144 4.23 4.346 8.163 7.901 8.74 7.901zm203.173-2c.47 0 4.095-3.41 8.054-7.578 3.959-4.167 9.416-10.975 12.127-15.128 2.71-4.153 4.929-8.097 4.929-8.765 0-.669-2.328-4.548-5.174-8.622-2.846-4.074-8.42-10.67-12.387-14.657-3.967-3.988-7.661-7.25-8.209-7.25-.547 0-2.235 2.587-3.75 5.75-1.967 4.107-5.655 8.607-12.911 15.75l-10.159 10 6.401 5c3.52 2.75 8.414 7.447 10.873 10.438 2.46 2.99 5.57 7.603 6.911 10.25 1.341 2.647 2.824 4.812 3.295 4.812zm-146.155-24c.146 0 .265-2.503.265-5.562v-5.563l-5.027 2.736c-2.764 1.505-4.677 3.062-4.25 3.46.428.398 2.57 1.67 4.762 2.827 2.192 1.156 4.105 2.102 4.25 2.102zm88.639-1c.206 0 2.456-1.163 5-2.585 2.544-1.423 4.626-2.765 4.626-2.984 0-.218-2.25-1.537-5-2.931l-5-2.534v5.517c0 3.034.168 5.517.374 5.517zM241.5 299.936c.55.028 2.35-.87 4-1.996 1.65-1.125 6.15-3.65 10-5.61 3.85-1.96 7.067-3.624 7.148-3.697.081-.073-1.373-4.633-3.232-10.133-1.859-5.5-3.388-10.726-3.398-11.614-.013-1.158-1.329-1.794-4.658-2.25-2.551-.35-8.995-.636-14.318-.636-5.603 0-11.763.619-14.628 1.47-2.722.808-5.746 2.052-6.72 2.764-1.666 1.219-1.59 1.655 1.289 7.416 1.682 3.366 5.334 8.432 8.115 11.258 2.781 2.825 7.384 6.9 10.23 9.057 2.844 2.156 5.622 3.943 6.172 3.971zm134.728-5.728c3.151-2.458 7.905-6.773 10.564-9.589 2.66-2.815 6.086-7.767 7.614-11.003 2.235-4.73 2.516-6.054 1.437-6.754-.739-.478-3.562-1.543-6.275-2.366-3.076-.933-8.719-1.468-15-1.422-5.537.04-12.065.378-14.507.75l-4.438.676-2.792 9.5c-1.535 5.225-3.033 10.4-3.328 11.5-.456 1.698 1.088 2.843 10.23 7.589l10.767 5.589 5.728-4.47zM270.421 279c.19 0 2.146-1.802 4.349-4.005l4.004-4.005-5.46-1.587c-3.005-.874-5.652-1.398-5.885-1.166-.232.233.269 2.75 1.113 5.593.845 2.843 1.69 5.17 1.88 5.17zm71.694-5.816c.888-2.576 1.475-4.847 1.304-5.047-.171-.2-2.585.183-5.365.85-2.78.667-5.054 1.387-5.054 1.6 0 .212 1.688 1.937 3.75 3.833l3.75 3.448 1.615-4.684zm-49.365-20.548c2.887-5.477 5.25-10.407 5.25-10.955s-1.826-3.363-4.058-6.256c-2.231-2.892-6.175-7.24-8.764-9.662-2.59-2.422-6.726-5.578-9.193-7.014-2.467-1.437-5.656-2.9-7.087-3.252-2.482-.61-2.706-.313-4.895 6.494-2.04 6.343-2.226 8.376-1.684 18.322.336 6.153.903 12.196 1.26 13.43.46 1.585 1.861 2.548 4.786 3.287 2.274.575 7.51 2.062 11.635 3.305l7.5 2.26 5.25-9.959zm39.158 7.325c4.726-1.535 9.78-3.05 11.232-3.368 1.452-.316 2.922-1.312 3.267-2.211.345-.9.903-6.191 1.24-11.759.396-6.548.173-12.242-.632-16.123-.684-3.3-1.984-7.451-2.888-9.224l-1.644-3.225-5.292 2.452c-2.91 1.349-8.029 5.05-11.373 8.224-3.345 3.175-7.898 8.22-10.12 11.21l-4.037 5.437 2.188 3.563c1.203 1.96 3.826 6.77 5.827 10.69l3.64 7.125 8.592-2.791zM305.578 262h5.612l-2.741-4.75c-1.508-2.613-2.87-4.907-3.028-5.1-.158-.192-1.45 1.946-2.87 4.75l-2.585 5.1h5.612zm-92.828-4.549c.963-.42 4.9-1.626 8.75-2.68 5.677-1.556 9.325-1.838 19.303-1.496l12.303.422-.76-5.598c-.418-3.08-.695-9.424-.615-14.099.08-4.675.782-10.75 1.559-13.5.777-2.75 1.592-5.675 1.811-6.5.337-1.266-1.24-1.491-10.101-1.443-5.831.032-14.603.863-19.727 1.87-5.074.996-9.63 2.32-10.125 2.943-.493.621-1.63 5.18-2.525 10.13-.895 4.95-1.626 13.886-1.625 19.857.002 9.964.146 10.794 1.752 10.094zm185.75-1.9c.592-.14.977-4.486.943-10.645-.031-5.74-.87-14.544-1.87-19.633-.996-5.074-2.326-9.653-2.954-10.174-.628-.522-5.187-1.656-10.13-2.52-4.944-.865-13.875-1.574-19.846-1.576-9.951-.003-10.796.143-10.13 1.747.4.963 1.435 3.775 2.3 6.25 1.16 3.314 1.567 8.333 1.548 19.041l-.026 14.542 15.083.023c11.139.017 16.259.436 19.582 1.604 2.475.87 4.95 1.474 5.5 1.342zm-88.684-29.531c2.407-3.036 6.564-7.584 9.236-10.107 2.672-2.523 7.579-6.037 10.903-7.809 3.325-1.772 6.045-3.59 6.045-4.042 0-.45-3.168-3.808-7.04-7.461-3.872-3.653-10.87-9.19-15.552-12.306l-8.512-5.665-3.198 1.837c-1.759 1.01-6.123 3.989-9.698 6.62-3.575 2.632-9.4 7.727-12.944 11.322-3.544 3.595-6.244 6.693-6 6.884.244.19 3.144 1.614 6.444 3.163 4.466 2.096 8.548 5.406 15.97 12.95l9.968 10.134 4.378-5.52z"/>
</svg>
